<svg width="36" height="28" viewBox="0 0 36 28" fill="none" xmlns="http://www.w3.org/2000/svg">
<path d="M18 0.847656C18 0.847656 14.8629 3.34847 13.3315 7.64303C14.5095 8.69248 15.6565 10.062 16.5121 11.8483C17.225 13.3294 17.6962 14.952 18 16.5596C18.31 14.952 18.775 13.322 19.488 11.8483C20.3435 10.062 21.4905 8.69248 22.6685 7.64303C21.1371 3.34847 18 0.847656 18 0.847656ZM7.53472 5.5739C7.53472 5.5739 6.56755 13.8653 9.16527 19.2614C11.7568 24.6575 17.5164 25.7888 17.5164 25.7888C17.5164 25.7888 18.3534 17.7654 15.7619 12.3693C13.158 6.97317 7.53472 5.5739 7.53472 5.5739ZM28.4653 5.5739C28.4653 5.5739 22.8359 6.97317 20.2443 12.3693C17.6466 17.7654 18.4836 25.7814 18.4836 25.7814C18.4836 25.7814 24.237 24.6501 26.8347 19.254C29.4263 13.8653 28.4653 5.5739 28.4653 5.5739ZM4.44102 13.9099C2.02929 13.9174 0.206543 14.6468 0.206543 14.6468C0.206543 14.6468 2.82286 22.4097 7.31773 25.5209C10.647 27.8282 14.4971 27.069 16.2765 26.5182C14.3855 25.9005 10.5106 24.1514 8.4089 19.7824C7.56572 18.0333 7.07594 16.0609 6.79074 14.1556C5.97857 13.9769 5.17879 13.9099 4.44102 13.9099ZM31.559 13.9099C30.815 13.9099 30.0214 13.9769 29.2031 14.1481C28.9241 16.0609 28.4281 18.0333 27.5849 19.775C25.4832 24.1439 21.6083 25.893 19.7174 26.5108C21.4967 27.0616 25.3468 27.8207 28.6761 25.5134C33.171 22.4023 35.7935 14.6468 35.7935 14.6468C35.7935 14.6468 33.9645 13.9174 31.559 13.9099Z" fill="#456B59"/>
</svg>
