<svg width="122" height="95" viewBox="0 0 122 95" fill="none" xmlns="http://www.w3.org/2000/svg">
<path d="M13.3406 74.676C13.8913 74.8621 14.5219 75.0691 15.2264 75.2909C18.1061 76.1975 22.2179 77.351 27.1409 78.3365C36.993 80.3086 50.0641 81.6019 63.0026 78.9212C76.0354 76.2209 85.181 73.9001 93.3785 68.535C101.475 63.236 108.691 54.9356 117.764 40.2389C100.769 34.5574 88.8028 35.932 79.3813 40.1964C71.5396 43.7458 65.4393 49.2983 59.6235 54.5918C58.3425 55.7577 57.0752 56.9111 55.8063 58.0278C46.9755 66.9436 35.642 71.104 26.5447 73.0393C21.9905 74.0081 17.9862 74.4216 15.1191 74.5929C14.4649 74.6319 13.8698 74.6584 13.3406 74.676Z" stroke="#C8B29A"/>
<path d="M5.67884 67.3407C6.22752 67.359 6.87739 67.3741 7.61313 67.3801C10.0548 67.4002 13.4385 67.3198 17.2067 66.9186C24.7657 66.1138 33.7764 64.0267 39.8682 58.9577C40.7251 58.2447 41.5233 57.5825 42.2679 56.9647C46.9401 53.0883 49.4994 50.9649 51.1871 49.0523C53.1082 46.8752 53.8874 44.9836 55.3591 40.944C56.1182 38.8442 57.2966 37.1839 58.6344 35.5893C59.1615 34.961 59.7025 34.3542 60.253 33.7369C61.124 32.76 62.0187 31.7566 62.9194 30.5994C65.7503 26.9624 68.4595 22.0042 69.3695 12.8349C53.3882 10.9486 42.8655 16.9007 36.0369 24.0381C29.409 30.9658 26.2518 39.021 25.0078 42.1949C24.9536 42.3332 24.9031 42.4622 24.856 42.5815C24.5156 43.4439 24.2134 44.4304 23.8732 45.5405C23.6557 46.2503 23.4228 47.0106 23.1545 47.8214C22.4764 49.8702 21.5947 52.1609 20.2209 54.5235C17.6611 58.9259 13.4172 63.5358 5.67884 67.3407Z" stroke="#C8B29A"/>
</svg>
