<svg width="54" height="62" viewBox="0 0 54 62" fill="none" xmlns="http://www.w3.org/2000/svg">
<g clip-path="url(#clip0_0_5507)">
<path d="M27 23.394C22.7901 23.394 19.3651 26.8062 19.3651 31.0002C19.3651 35.1942 22.7901 38.6064 27 38.6064C31.2099 38.6064 34.6349 35.1942 34.6349 31.0002C34.6349 26.8062 31.2099 23.394 27 23.394ZM27 37.8954C23.1831 37.8954 20.0788 34.8017 20.0788 31.0002C20.0788 27.1987 23.1841 24.105 27 24.105C30.8159 24.105 33.9212 27.1987 33.9212 31.0002C33.9212 34.8017 30.8159 37.8954 27 37.8954Z" fill="#C1A78C"/>
<path d="M53.8431 46.0201C49.7704 43.2861 48.4596 41.1038 47.4056 39.35C45.9824 36.9807 44.9438 35.2515 38.8498 33.7802C39.9306 32.7548 41.6818 32.7076 43.6763 32.6552C45.7864 32.5997 48.1791 32.537 50.3593 31.301C50.4882 31.228 50.5584 31.0832 50.5357 30.9383C50.513 30.7924 50.4026 30.6763 50.2582 30.6455C48.1853 30.2027 46.9384 29.6663 45.7328 29.1475C43.9837 28.3954 42.4584 27.7399 39.0024 27.6505C40.2503 26.4021 41.8179 25.6891 43.598 24.8805C46.9198 23.3712 50.6862 21.6615 53.9462 15.8452C54.0226 15.7095 54.0009 15.541 53.8937 15.428C53.7864 15.315 53.6183 15.2852 53.478 15.353C49.065 17.5004 46.5114 17.5394 44.4601 17.5713C41.689 17.6144 39.6666 17.6463 35.3402 22.168C34.9895 20.7224 35.8239 19.1885 36.7758 17.4408C37.7834 15.5924 38.924 13.4964 38.9395 10.9967C38.9395 10.8497 38.8498 10.7172 38.7116 10.6638C38.5734 10.6103 38.4166 10.6473 38.3176 10.7562C36.8964 12.3231 35.8063 13.1307 34.7533 13.9115C33.226 15.0438 31.8925 16.0332 30.0866 18.9696C29.6246 17.2692 29.7896 15.5595 29.9763 13.6197C30.3259 9.99902 30.7219 5.89541 27.2959 0.173583C27.2165 0.0400152 27.0587 -0.0257412 26.9071 0.0102193C26.7554 0.0461798 26.6451 0.176665 26.6338 0.330781C26.2934 5.21216 25.0517 7.43452 24.0534 9.22021C22.7054 11.6327 21.7216 13.3937 23.4893 19.3868C22.0567 18.9665 21.1409 17.4798 20.0983 15.7845C18.9948 13.9917 17.7438 11.9584 15.579 10.6956C15.4511 10.6216 15.2902 10.6329 15.1758 10.7254C15.0603 10.8179 15.0139 10.971 15.0592 11.1117C15.71 13.1214 15.8678 14.4653 16.0204 15.765C16.2411 17.6494 16.434 19.2933 18.0841 22.3211C16.3752 21.8691 14.9716 20.8724 13.3782 19.7412C10.4626 17.6699 7.16653 15.3284 0.733141 15.3284C0.606288 15.3284 0.478404 15.3284 0.349489 15.3314C0.19376 15.3335 0.0576252 15.4362 0.012247 15.5852C-0.0320998 15.7342 0.0256542 15.8945 0.154569 15.9808C4.22726 18.7148 5.5391 20.8971 6.59208 22.6509C8.0153 25.0202 9.05385 26.7484 15.1479 28.2207C14.0671 29.2461 12.3159 29.2934 10.3213 29.3458C8.21125 29.4012 5.81859 29.4639 3.63837 30.701C3.50946 30.7739 3.43933 30.9177 3.46202 31.0636C3.48471 31.2095 3.59506 31.3256 3.73944 31.3565C5.8124 31.7993 7.05927 32.3356 8.26488 32.8545C10.013 33.6066 11.5393 34.2621 14.9953 34.3515C13.7474 35.5998 12.1798 36.3129 10.3997 37.1214C7.07783 38.6308 3.31144 40.3404 0.0514372 46.1568C-0.0248806 46.2924 -0.00322281 46.4609 0.104035 46.5739C0.173133 46.6469 0.266983 46.6849 0.362896 46.6849C0.415494 46.6849 0.469123 46.6736 0.519657 46.6489C4.93268 44.5016 7.4852 44.4625 9.5365 44.4296C12.3077 44.3865 14.3301 44.3546 18.6565 39.8329C19.0071 41.2785 18.1728 42.8125 17.2209 44.5601C16.2133 46.4085 15.0726 48.5045 15.0572 51.0043C15.0572 51.1512 15.1469 51.2837 15.2851 51.3371C15.3274 51.3536 15.3707 51.3608 15.414 51.3608C15.513 51.3608 15.61 51.3197 15.6791 51.2436C17.1002 49.6768 18.1903 48.8692 19.2433 48.0884C20.7707 46.9561 22.1042 45.9667 23.91 43.0303C24.3721 44.7307 24.2071 46.4404 24.0204 48.3802C23.6708 52.0009 23.2747 56.1045 26.7008 61.8263C26.7658 61.9352 26.8833 61.9999 27.0071 61.9999C27.0349 61.9999 27.0628 61.9969 27.0896 61.9907C27.2412 61.9547 27.3516 61.8242 27.3629 61.6701C27.7032 56.7888 28.9449 54.5664 29.9433 52.7807C31.2912 50.3683 32.2741 48.6072 30.5074 42.6142C31.9399 43.0344 32.8557 44.5211 33.8984 46.2164C35.0019 48.0093 36.2519 50.0426 38.4176 51.3053C38.4733 51.3382 38.5362 51.3536 38.5981 51.3536C38.6775 51.3536 38.7569 51.3269 38.8219 51.2755C38.9374 51.183 38.9838 51.0299 38.9385 50.8892C38.2877 48.8795 38.1299 47.5356 37.9773 46.2359C37.7566 44.3516 37.5637 42.7066 35.9136 39.6798C37.6225 40.1319 39.0261 41.1285 40.6195 42.2597C43.5351 44.331 46.8322 46.6726 53.2645 46.6726C53.3914 46.6726 53.5193 46.6726 53.6482 46.6695C53.8039 46.6674 53.9401 46.5647 53.9844 46.4157C54.0288 46.2667 53.971 46.1064 53.8421 46.0201H53.8431ZM26.9999 42.123C20.8429 42.123 15.8348 37.1328 15.8348 30.9999C15.8348 24.8671 20.8429 19.8779 26.9988 19.8769C26.9988 19.8769 26.9988 19.8769 26.9999 19.8769C33.1558 19.8769 38.1639 24.8671 38.1639 30.9999C38.1639 37.1328 33.1548 42.123 26.9988 42.123H26.9999ZM49.131 31.1078C47.3355 31.8476 45.3976 31.8979 43.6578 31.9442C41.7777 31.9935 39.9822 32.0407 38.7136 32.9654C38.8219 32.3253 38.8786 31.6688 38.8786 30.9989C38.8786 30.0886 38.7745 29.2019 38.5785 28.3502C42.1892 28.3954 43.7042 29.0468 45.4502 29.7968C46.4393 30.2222 47.5386 30.6948 49.131 31.1068V31.1078ZM44.4725 18.2792C46.4269 18.2484 48.8216 18.2114 52.7458 16.475C49.7354 21.3101 46.3289 22.8575 43.302 24.2322C41.4425 25.0767 39.6789 25.8802 38.3011 27.3536C38.0701 26.6446 37.7741 25.9655 37.4193 25.3223C38.3186 24.4264 40.1915 22.7116 43.4618 21.9256C43.6537 21.8793 43.7712 21.6872 43.7248 21.4971C43.6784 21.306 43.4855 21.1889 43.2948 21.2351C39.9852 22.0304 38.036 23.7226 37.046 24.6914C36.6355 24.0452 36.1642 23.441 35.6393 22.8873C39.9131 18.3521 41.8303 18.3213 44.4725 18.2802V18.2792ZM35.1813 14.4807C36.0456 13.8396 37.0068 13.1276 38.1598 11.9604C37.9051 13.8786 36.98 15.577 36.1498 17.1007C35.2515 18.7497 34.3934 20.3248 34.5667 21.8845C33.3786 20.9043 31.9966 20.1491 30.4868 19.6868C32.3318 16.5942 33.655 15.6119 35.1813 14.4807ZM24.6794 9.56544C25.6303 7.86399 26.7946 5.77931 27.2474 1.52467C29.9453 6.53859 29.5875 10.2518 29.2688 13.5509C29.0728 15.577 28.8882 17.5004 29.4792 19.4258C28.7655 19.2748 28.0281 19.1864 27.2742 19.1689C26.9452 17.9442 26.3914 15.4722 27.3423 12.2594C27.398 12.0714 27.2897 11.8741 27.1009 11.8186C26.9122 11.7631 26.7142 11.871 26.6585 12.059C25.6952 15.3099 26.1903 17.8363 26.5378 19.1761C25.7592 19.2059 24.9991 19.3107 24.2648 19.4833C22.4621 13.5334 23.3944 11.8649 24.6794 9.56544ZM16.0297 11.8515C17.5705 13.03 18.5833 14.678 19.4929 16.1555C20.4757 17.7531 21.4153 19.2779 22.8529 19.9108C21.3792 20.4594 20.0436 21.2916 18.9122 22.3417C17.1435 19.1998 16.9507 17.5661 16.731 15.6828C16.6062 14.6163 16.467 13.4317 16.0287 11.8525L16.0297 11.8515ZM7.20778 22.2852C6.2043 20.6146 4.97497 18.5669 1.50251 16.0496C7.20984 16.2294 10.2584 18.3942 12.9667 20.3186C14.6323 21.5023 16.2143 22.6232 18.1872 23.0743C17.6901 23.6219 17.2446 24.2157 16.8558 24.8497C15.6275 24.5219 13.1998 23.7637 10.8813 21.3348C10.7462 21.193 10.5204 21.1868 10.377 21.3225C10.2347 21.4581 10.2285 21.6821 10.3647 21.8249C12.7099 24.2825 15.1541 25.1178 16.4928 25.4877C16.137 26.1576 15.8451 26.8645 15.6223 27.6022C9.54888 26.1823 8.56397 24.5445 7.20778 22.2862V22.2852ZM4.8708 30.891C6.66633 30.1513 8.60419 30.1009 10.344 30.0547C12.2241 30.0054 14.0197 29.9581 15.2882 29.0324C15.1799 29.6725 15.1232 30.329 15.1232 30.9989C15.1232 31.9092 15.2273 32.7959 15.4233 33.6477C11.8126 33.6025 10.2976 32.9511 8.55159 32.201C7.56255 31.7757 6.46213 31.303 4.8708 30.891ZM9.52928 43.7197C7.57493 43.7505 5.1802 43.7875 1.25602 45.5239C4.26645 40.6887 7.67187 39.1414 10.6998 37.7667C12.5593 36.9221 14.3229 36.1187 15.7007 34.6453C15.9317 35.3542 16.2277 36.0334 16.5825 36.6766C15.6832 37.5725 13.8103 39.2873 10.541 40.0733C10.3492 40.1195 10.2316 40.3117 10.278 40.5017C10.3172 40.6641 10.4637 40.774 10.6245 40.774C10.6524 40.774 10.6802 40.7709 10.7081 40.7637C14.0186 39.9685 15.9668 38.2763 16.9569 37.3074C17.3673 37.9537 17.8386 38.5578 18.3636 39.1116C14.0898 43.6467 12.1726 43.6776 9.53031 43.7187L9.52928 43.7197ZM18.8205 47.5181C17.9562 48.1593 16.995 48.8713 15.842 50.0385C16.0967 48.1202 17.0218 46.4219 17.8521 44.8982C18.7503 43.2491 19.6084 41.674 19.4351 40.1144C20.6232 41.0946 22.0052 41.8497 23.515 42.3121C21.67 45.4047 20.3468 46.3859 18.8205 47.5171V47.5181ZM29.3224 52.4334C28.3715 54.1349 27.2072 56.2196 26.7544 60.4732C24.0565 55.4592 24.4144 51.7461 24.733 48.4469C24.9279 46.4208 25.1136 44.4975 24.5226 42.572C25.2363 42.7231 25.9737 42.8114 26.7276 42.8289C27.0566 44.0536 27.6104 46.5256 26.6585 49.7384C26.6028 49.9265 26.7111 50.1237 26.8998 50.1802C26.9339 50.1905 26.9679 50.1946 27.0009 50.1946C27.1546 50.1946 27.2969 50.0939 27.3433 49.9398C28.3066 46.688 27.8115 44.1625 27.464 42.8227C28.2426 42.7929 29.0027 42.6881 29.737 42.5155C31.5398 48.4654 30.6074 50.134 29.3224 52.4334ZM37.9721 50.1474C36.4313 48.9689 35.4185 47.3209 34.5089 45.8434C33.5261 44.2457 32.5865 42.721 31.1478 42.0881C32.6216 41.5395 33.9572 40.7072 35.0885 39.6572C36.8572 42.7991 37.0491 44.4327 37.2698 46.316C37.3946 47.3825 37.5338 48.5672 37.9721 50.1463V50.1474ZM41.0351 41.6802C39.3695 40.4966 37.7875 39.3757 35.8146 38.9246C36.3117 38.377 36.7572 37.7831 37.146 37.1492C38.3743 37.4769 40.802 38.2352 43.1205 40.6641C43.1906 40.737 43.2844 40.774 43.3793 40.774C43.468 40.774 43.5557 40.7411 43.6248 40.6764C43.7671 40.5408 43.7733 40.3158 43.6372 40.174C41.2909 37.7163 38.8477 36.881 37.509 36.5111C37.8648 35.8413 38.1567 35.1344 38.3795 34.3967C44.4529 35.8166 45.4378 37.4543 46.794 39.7127C47.7975 41.3833 49.0268 43.431 52.4993 45.9482C46.792 45.7684 43.7434 43.6036 41.0351 41.6792V41.6802Z" fill="#C1A78C"/>
</g>
<defs>
<clipPath id="clip0_0_5507">
<rect width="54" height="62" fill="white"/>
</clipPath>
</defs>
</svg>
