<svg width="167" height="144" viewBox="0 0 167 144" fill="none" xmlns="http://www.w3.org/2000/svg">
<path d="M25.4186 114.934C26.4059 115.183 27.6447 115.482 29.1057 115.805C33.1759 116.704 38.9698 117.794 45.8588 118.556C59.6432 120.079 77.7819 120.282 95.2652 115.03C112.841 109.751 125.156 105.453 135.802 97.0705C146.352 88.7628 155.304 76.4079 166.048 54.9863C141.852 49.1433 125.465 52.4742 112.949 59.5166C102.577 65.3532 94.8423 73.7421 87.4908 81.7155C85.872 83.4712 84.2719 85.2067 82.6662 86.8904C71.6426 100.166 56.6124 107.232 44.367 110.982C38.2387 112.858 32.7976 113.906 28.8873 114.486C27.5376 114.686 26.3698 114.831 25.4186 114.934Z" fill="#C8B29A" stroke="#C8B29A"/>
<path d="M14.3239 106.077C15.2139 106.036 16.3741 105.969 17.7502 105.86C21.1117 105.593 25.7575 105.074 30.8939 104.067C41.1892 102.049 53.3617 98.0873 61.1601 90.3493C62.2511 89.2668 63.2679 88.2608 64.2167 87.3221C70.1638 81.438 73.4362 78.2003 75.5333 75.357C77.9332 72.1033 78.7828 69.3794 80.3176 63.6531C81.0989 60.7079 82.5036 58.3062 84.1436 55.9625C84.7849 55.046 85.4523 54.1506 86.1333 53.2372C87.2159 51.785 88.3325 50.2871 89.4321 48.5862C92.9184 43.1934 96.0667 35.9778 96.1836 23.1206C73.8283 22.395 59.9839 31.8946 51.408 42.5916C43.1147 52.9361 39.7398 64.4121 38.4128 68.9245C38.3548 69.1216 38.3008 69.3054 38.2504 69.4752C37.8851 70.7067 37.5858 72.1115 37.2507 73.6845C37.0377 74.6848 36.8101 75.7532 36.5418 76.8882C35.8589 79.7775 34.9275 83.0164 33.3328 86.411C30.3006 92.8655 24.8921 99.8366 14.3239 106.077Z" fill="#C8B29A" stroke="#C8B29A"/>
</svg>
