<svg width="29" height="29" viewBox="0 0 29 29" fill="none" xmlns="http://www.w3.org/2000/svg">
<path d="M14.3945 17.049C15.8142 17.049 16.965 15.8982 16.965 14.4786C16.965 13.059 15.8142 11.9082 14.3945 11.9082C12.9749 11.9082 11.8241 13.059 11.8241 14.4786C11.8241 15.8982 12.9749 17.049 14.3945 17.049Z" fill="#456B59"/>
<path d="M14.3944 0.0844727C6.4246 0.0844727 0 6.50908 0 14.4788C0 22.4486 6.4246 28.8732 14.3944 28.8732C22.3641 28.8732 28.7887 22.4486 28.7887 14.4788C28.7887 6.50908 22.3641 0.0844727 14.3944 0.0844727ZM22.8521 17.8131C22.8521 20.5781 20.575 22.8552 17.81 22.8552H11.0601C8.29506 22.8552 6.01799 20.5781 6.01799 17.8131V11.0632C6.01799 8.29821 8.29506 6.02113 11.0601 6.02113H17.81C20.575 6.02113 22.8521 8.29821 22.8521 11.0632V17.8131ZM17.81 7.64762H11.0601C9.1083 7.64762 7.56314 9.19277 7.56314 11.1446V17.8945C7.56314 19.8462 9.1083 21.3914 11.0601 21.3914H17.81C19.7618 21.3914 21.3069 19.8462 21.3069 17.8945V11.1446C21.3069 9.19277 19.6804 7.64762 17.81 7.64762ZM14.4757 18.6264C12.1986 18.6264 10.3282 16.7559 10.3282 14.4788C10.3282 12.2018 12.1986 10.3313 14.4757 10.3313C16.7528 10.3313 18.6232 12.2018 18.6232 14.4788C18.6232 16.7559 16.7528 18.6264 14.4757 18.6264ZM18.8672 10.9819C18.2979 10.9819 17.8913 10.5753 17.8913 10.006C17.8913 9.43675 18.2979 9.03013 18.8672 9.03013C19.4365 9.03013 19.8431 9.51807 19.8431 10.006C19.8431 10.494 19.4365 10.9819 18.8672 10.9819Z" fill="#456B59"/>
</svg>
