<svg width="60" height="60" viewBox="0 0 60 60" fill="none" xmlns="http://www.w3.org/2000/svg">
<circle cx="30" cy="30" r="30" fill="#C1A78C"/>
<path d="M37.9735 52.5462L38.8004 51.512L39.9745 48.7824C39.9745 48.7824 47.168 40.458 47.2176 38.9322C47.2673 37.4063 47.383 30.2857 47.3169 28.8446C47.2507 27.4035 44.241 28.1325 44.1087 30.3535C43.9599 32.5744 43.6953 36.2534 43.6953 36.2534L38.4366 42.9164" stroke="#456B59" stroke-miterlimit="10" stroke-linecap="round" stroke-linejoin="round"/>
<path d="M31.6072 51.4098L32.682 43.984C32.682 43.984 35.9563 39.9659 38.47 37.3041C40.9836 34.6423 42.7695 37.355 42.7695 37.355" stroke="#456B59" stroke-miterlimit="10" stroke-linecap="round" stroke-linejoin="round"/>
<path d="M20.7753 52.5462L19.9485 51.512L18.7909 48.7824C18.7909 48.7824 11.5973 40.458 11.5477 38.9322C11.4981 37.4063 11.3824 30.2857 11.4485 28.8446C11.5147 27.4035 14.5244 28.1325 14.6567 30.3535C14.8055 32.5744 15.0701 36.2534 15.0701 36.2534L20.3288 42.9164" stroke="#456B59" stroke-miterlimit="10" stroke-linecap="round" stroke-linejoin="round"/>
<path d="M27.1418 51.4098L26.0669 43.984C26.0669 43.984 22.7926 39.9659 20.279 37.3041C17.7654 34.6423 15.9794 37.355 15.9794 37.355" stroke="#456B59" stroke-miterlimit="10" stroke-linecap="round" stroke-linejoin="round"/>
<path d="M38.5853 24.9106C38.5853 30.1324 34.4676 34.3539 29.3743 34.3539C24.2809 34.3539 20.1632 30.1324 20.1632 24.9106C20.1632 17.4847 29.3743 7.14282 29.3743 7.14282C29.3743 7.14282 38.5853 17.3152 38.5853 24.9106Z" stroke="#456B59" stroke-miterlimit="10" stroke-linecap="round" stroke-linejoin="round"/>
<path d="M29.3743 14.9581V39.5244" stroke="#456B59" stroke-miterlimit="10" stroke-linecap="round" stroke-linejoin="round"/>
<path d="M24.6616 25.8092L29.5399 30.3529L34.0876 25.8092" stroke="#456B59" stroke-miterlimit="10" stroke-linecap="round" stroke-linejoin="round"/>
<path d="M25.5873 21.5708L29.5065 25.2329L33.1777 21.5708" stroke="#456B59" stroke-miterlimit="10" stroke-linecap="round" stroke-linejoin="round"/>
<path d="M26.6956 17.3159L29.4738 19.9099L32.0536 17.3159" stroke="#456B59" stroke-miterlimit="10" stroke-linecap="round" stroke-linejoin="round"/>
</svg>
