<svg width="60" height="60" viewBox="0 0 60 60" fill="none" xmlns="http://www.w3.org/2000/svg">
<circle cx="30" cy="30" r="30" fill="#C1A78C"/>
<path d="M36.9144 30.2019C39.6457 30.2019 42.0275 30.0722 42.0275 27.5267C42.0275 25.8568 40.9954 22.8573 39.5186 20.9928C39.8838 20.3118 40.0903 19.5498 40.0903 18.7391C40.0903 16.5665 38.6135 14.702 36.5492 14.0048C36.5492 13.9076 36.5651 13.7941 36.5651 13.6968C36.5651 11.0216 34.5167 8.849 31.9919 8.849C31.1503 8.849 30.3722 9.0922 29.7053 9.49753C29.0383 9.0922 28.2444 8.849 27.4187 8.849C24.8939 8.849 22.8454 11.0216 22.8454 13.6968C22.8454 13.7941 22.8454 13.8913 22.8613 13.9886C19.9713 14.8155 17.8594 17.3286 17.8594 20.2956C17.8594 21.0901 18.0023 21.8521 18.2881 22.5493C17.3671 24.2517 16.7955 26.2621 16.7955 27.5105C16.7955 30.056 19.1773 30.1857 21.9086 30.1857" stroke="#456B59" stroke-miterlimit="10" stroke-linecap="round" stroke-linejoin="round"/>
<path d="M46.0283 48.3766V44.5341C46.0283 41.8751 44.9644 40.5456 41.2805 39.6863L37.1042 38.8756C35.3734 38.8756 33.976 37.4489 33.976 35.6816V32.1471" stroke="#456B59" stroke-miterlimit="10" stroke-linecap="round" stroke-linejoin="round"/>
<path d="M24.7666 32.1471V35.7302C24.7666 37.4813 23.3851 38.8918 21.6701 38.8918L17.605 39.7025C14.1592 40.5456 12.8571 41.8751 12.8571 44.5503V48.3928" stroke="#456B59" stroke-miterlimit="10" stroke-linecap="round" stroke-linejoin="round"/>
<path d="M21.6699 38.8922C21.6699 38.8922 23.9248 42.2159 29.4031 42.2159C34.8814 42.2159 37.1204 38.8922 37.1204 38.8922" stroke="#456B59" stroke-miterlimit="10" stroke-linecap="round" stroke-linejoin="round"/>
<path d="M37.7878 23.0841C37.7878 22.3058 37.375 21.6249 36.7716 21.3168C36.6286 19.0469 33.9768 18.5443 33.9768 18.5443C29.483 18.5443 29.9117 13.6803 27.7363 14.5721C26.1801 19.4361 25.4179 19.5009 22.5914 21.6735C22.0356 21.9978 21.1782 22.6463 21.1782 23.3921C21.1782 24.2028 21.6069 25.6944 22.2262 25.9862C22.7502 30.1369 24.8939 34.0929 29.086 34.0929C33.1193 34.0929 36.0252 29.8937 36.6763 25.6782C37.3273 25.4188 37.7878 23.9109 37.7878 23.0841Z" stroke="#456B59" stroke-miterlimit="10" stroke-linecap="round" stroke-linejoin="round"/>
<path d="M29.4029 42.2155V48.3765" stroke="#456B59" stroke-miterlimit="10" stroke-linecap="round" stroke-linejoin="round"/>
</svg>
