<svg width="60" height="60" viewBox="0 0 60 60" fill="none" xmlns="http://www.w3.org/2000/svg">
<circle cx="30" cy="30" r="30" fill="#C1A78C"/>
<path d="M22.2211 41.0463V42.9668" stroke="#456B59" stroke-miterlimit="10" stroke-linecap="round" stroke-linejoin="round"/>
<path d="M38.5538 31.6434C37.9185 30.0475 36.4641 28.4517 34.6084 28.4173L32.502 28.383L30.4123 31.8321L30.312 31.5232V31.4718L30.2117 31.7806L28.122 28.3315L26.0156 28.3659C23.9092 28.4002 23.3408 29.4812 22.0034 31.5747" stroke="#456B59" stroke-miterlimit="10" stroke-linecap="round" stroke-linejoin="round"/>
<path d="M38.4368 43.0197V40.9949" stroke="#456B59" stroke-miterlimit="10" stroke-linecap="round" stroke-linejoin="round"/>
<path d="M30.3288 26.0831C32.6191 26.0831 34.4914 23.9382 34.4914 21.3127C34.4914 18.6702 32.6358 17.2631 30.3455 17.2631C28.0552 17.2631 26.1995 18.6702 26.1995 21.3127C26.1661 23.9382 28.0384 26.0831 30.3288 26.0831Z" stroke="#456B59" stroke-miterlimit="10" stroke-linecap="round" stroke-linejoin="round"/>
<path d="M22.6724 30.4591L18.2255 38.1295C17.7073 38.7472 17.7741 39.691 18.376 40.223C18.3927 40.2401 18.4261 40.2573 18.4428 40.2744C18.7103 40.5833 19.0948 40.7892 19.5295 40.7892H26.0493C26.8518 40.7892 27.5038 40.12 27.5038 39.2963C27.5038 38.4727 26.8518 37.8034 26.0493 37.8034H22.338L24.7621 33.4277" stroke="#456B59" stroke-miterlimit="10" stroke-linecap="round" stroke-linejoin="round"/>
<path d="M37.8348 30.4241L42.2817 38.0944C42.7999 38.7122 42.7331 39.656 42.1312 40.1879C42.1145 40.2051 42.0811 40.2222 42.0644 40.2394C41.7969 40.5483 41.4124 40.7542 40.9777 40.7542H34.4579C33.6554 40.7542 33.0034 40.085 33.0034 39.2613C33.0034 38.4376 33.6554 37.7684 34.4579 37.7684H38.1692L35.7451 33.3927" stroke="#456B59" stroke-miterlimit="10" stroke-linecap="round" stroke-linejoin="round"/>
<path d="M41.0947 51.617H19.3786C16.8375 51.617 18.2083 48.9057 22.4212 48.4253C26.634 47.9448 41.0947 44.4099 41.0947 44.4099C43.6358 44.4099 45.7088 46.0229 45.7088 48.0134C45.6921 50.004 43.6191 51.617 41.0947 51.617Z" stroke="#456B59" stroke-miterlimit="10" stroke-linecap="round" stroke-linejoin="round"/>
<path d="M23.9422 45.3875L18.4087 44.5466C15.8676 44.5466 13.7947 46.1596 13.7947 48.1502C13.7947 50.1235 15.8676 51.7537 18.4087 51.7537H23.424" stroke="#456B59" stroke-miterlimit="10" stroke-linecap="round" stroke-linejoin="round"/>
<path d="M9.99999 27.0955H13.9621" stroke="#456B59" stroke-miterlimit="10" stroke-linecap="round" stroke-linejoin="round"/>
<path d="M47.3136 27.0955H51.2757" stroke="#456B59" stroke-miterlimit="10" stroke-linecap="round" stroke-linejoin="round"/>
<path d="M30.6795 5.92065V9.9875" stroke="#456B59" stroke-miterlimit="10" stroke-linecap="round" stroke-linejoin="round"/>
<path d="M12.4073 17.0913L16.1187 18.7032" stroke="#456B59" stroke-miterlimit="10" stroke-linecap="round" stroke-linejoin="round"/>
<path d="M21.9197 12.5265L19.412 8.85437" stroke="#456B59" stroke-miterlimit="10" stroke-linecap="round" stroke-linejoin="round"/>
<path d="M41.2621 8.49451L38.9551 12.2696" stroke="#456B59" stroke-miterlimit="10" stroke-linecap="round" stroke-linejoin="round"/>
<path d="M44.9399 18.2568L48.5175 16.4563" stroke="#456B59" stroke-miterlimit="10" stroke-linecap="round" stroke-linejoin="round"/>
</svg>
