<svg width="60" height="60" viewBox="0 0 60 60" fill="none" xmlns="http://www.w3.org/2000/svg">
<circle cx="30" cy="30" r="30" fill="#C1A78C"/>
<path d="M37.8286 49.6165L38.5543 48.6931L39.5823 46.2515C39.5823 46.2515 45.9624 38.8015 46.0078 37.4398C46.0531 36.0781 46.159 29.6924 46.0985 28.409C46.038 27.1256 43.3771 27.7673 43.2411 29.755C43.1201 31.7427 42.8631 35.0451 42.8631 35.0451L38.1914 41.0083" stroke="#456B59" stroke-miterlimit="10" stroke-linecap="round" stroke-linejoin="round"/>
<path d="M32.1742 48.5835L33.1267 41.9473C33.1267 41.9473 36.0295 38.3475 38.2519 35.9685C40.4744 33.5739 42.0618 36.0155 42.0618 36.0155" stroke="#456B59" stroke-miterlimit="10" stroke-linecap="round" stroke-linejoin="round"/>
<path d="M22.5739 49.6165L21.8482 48.6931L20.8201 46.2515C20.8201 46.2515 14.44 38.8015 14.3947 37.4398C14.3493 36.0781 14.2435 29.6924 14.304 28.409C14.3645 27.1256 17.0253 27.7673 17.1614 29.755C17.2824 31.7427 17.5394 35.0451 17.5394 35.0451L22.2111 41.0083" stroke="#456B59" stroke-miterlimit="10" stroke-linecap="round" stroke-linejoin="round"/>
<path d="M28.2282 48.5835L27.2757 41.9473C27.2757 41.9473 24.3729 38.3475 22.1505 35.9685C19.928 33.5739 18.3405 36.0155 18.3405 36.0155" stroke="#456B59" stroke-miterlimit="10" stroke-linecap="round" stroke-linejoin="round"/>
<path d="M30.4321 32.0373C36.2252 31.9011 40.8147 26.929 40.6831 20.9319C40.5515 14.9348 35.7486 10.1836 29.9556 10.3198C24.1625 10.456 19.573 15.4281 19.7046 21.4252C19.8362 27.4224 24.6391 32.1736 30.4321 32.0373Z" stroke="#456B59" stroke-miterlimit="10" stroke-linecap="round" stroke-linejoin="round"/>
<path d="M29.6345 10.3322C29.7403 10.3322 29.8462 10.3166 29.952 10.3166C32.749 10.3166 35.0168 12.7425 35.0168 15.7476C35.0168 18.7527 32.749 21.1786 29.952 21.1786" stroke="#456B59" stroke-miterlimit="10" stroke-linecap="round" stroke-linejoin="round"/>
<path d="M30.4659 32.0084C30.3601 32.0084 30.2543 32.024 30.1484 32.024C27.3515 32.024 25.0837 29.5981 25.0837 26.593C25.0837 23.5879 27.3515 21.162 30.1484 21.162" stroke="#456B59" stroke-miterlimit="10" stroke-linecap="round" stroke-linejoin="round"/>
<path d="M30.7259 17.1143C31.5128 16.7769 31.8864 15.843 31.5605 15.0284C31.2346 14.2138 30.3325 13.827 29.5456 14.1644C28.7587 14.5019 28.3851 15.4357 28.711 16.2503C29.0369 17.0649 29.9391 17.4518 30.7259 17.1143Z" stroke="#456B59" stroke-miterlimit="10" stroke-linecap="round" stroke-linejoin="round"/>
<path d="M30.4392 28.0058C31.2261 27.6684 31.5997 26.7345 31.2738 25.9199C30.9478 25.1053 30.0457 24.7185 29.2589 25.0559C28.472 25.3933 28.0983 26.3272 28.4243 27.1418C28.7502 27.9564 29.6523 28.3432 30.4392 28.0058Z" stroke="#456B59" stroke-miterlimit="10" stroke-linecap="round" stroke-linejoin="round"/>
</svg>
