<svg width="207" height="207" viewBox="0 0 207 207" fill="none" xmlns="http://www.w3.org/2000/svg">
<path d="M157.379 133.386C173.825 103.715 163.105 66.3302 133.435 49.8836C103.765 33.437 66.3795 44.157 49.9329 73.8273C33.4863 103.498 44.2063 140.883 73.8767 157.329C103.547 173.776 140.932 163.056 157.379 133.386Z" stroke="#C1A78C" stroke-opacity="0.7" stroke-miterlimit="22.9256"/>
<path d="M73.4237 32.0258C76.4637 19.7764 93.0943 12.8917 103.645 1C117.772 16.8259 142.628 23.8 131.631 46.5999" stroke="#C1A78C" stroke-opacity="0.7" stroke-miterlimit="22.9256"/>
<path d="M32.0262 73.4235C27.8238 62.6047 33.5462 47.4047 32.7415 32.7412C53.932 33.9036 76.3743 21.2965 84.779 45.1694" stroke="#C1A78C" stroke-opacity="0.7" stroke-miterlimit="22.9256"/>
<path d="M32.0258 133.866C19.7764 130.737 12.8917 114.196 1 103.645C16.8259 89.5182 23.8 64.6618 46.5999 75.6594" stroke="#C1A78C" stroke-opacity="0.7" stroke-miterlimit="22.9256"/>
<path d="M73.4235 175.173C62.6047 179.376 47.4047 173.653 32.7412 174.458C33.9036 153.267 21.2965 130.825 45.1694 122.42" stroke="#C1A78C" stroke-opacity="0.7" stroke-miterlimit="22.9256"/>
<path d="M133.865 175.173C130.736 187.423 114.194 194.307 103.644 206.199C89.5169 190.373 64.6604 183.399 75.6581 160.599" stroke="#C1A78C" stroke-opacity="0.7" stroke-miterlimit="22.9256"/>
<path d="M175.173 133.866C179.376 144.685 173.653 159.885 174.458 174.548C153.268 173.386 130.825 185.993 122.421 162.12" stroke="#C1A78C" stroke-opacity="0.7" stroke-miterlimit="22.9256"/>
<path d="M175.173 73.4229C187.423 76.4628 194.307 93.0934 206.199 103.644C190.373 117.771 183.399 142.627 160.599 131.63" stroke="#C1A78C" stroke-opacity="0.7" stroke-miterlimit="22.9256"/>
<path d="M162.03 84.7775C185.903 76.3729 173.296 53.9306 174.459 32.74C159.795 33.5447 144.595 27.8224 133.776 32.0247" stroke="#C1A78C" stroke-opacity="0.7" stroke-miterlimit="22.9256"/>
<path d="M96.8487 75.032C97.564 73.512 98.3687 71.992 99.1734 70.5614C99.9781 69.0414 100.783 67.6109 101.498 66.2697C102.213 64.8391 102.929 63.4979 103.555 62.1567C104.18 63.4979 104.896 64.8391 105.611 66.2697C106.326 67.7003 107.131 69.1308 107.936 70.5614C108.74 72.0814 109.545 73.512 110.26 75.032" stroke="#C1A78C" stroke-opacity="0.7" stroke-miterlimit="22.9256"/>
<path d="M96.8487 132.167C97.564 133.687 98.3687 135.207 99.1734 136.637C99.9781 138.157 100.783 139.588 101.498 140.929C102.213 142.36 102.929 143.701 103.555 145.042C104.18 143.701 104.896 142.36 105.611 140.929C106.326 139.499 107.131 138.068 107.936 136.637C108.74 135.117 109.545 133.687 110.26 132.167" stroke="#C1A78C" stroke-opacity="0.7" stroke-miterlimit="22.9256"/>
<path d="M78.6082 88.175C78.0717 86.5656 77.5353 84.9562 77.0882 83.3468C76.6411 81.7374 76.1047 80.128 75.6576 78.608C75.2106 77.088 74.6741 75.568 74.227 74.2268C75.5682 74.7633 77.0882 75.2103 78.6082 75.6574C80.1282 76.1045 81.7376 76.5515 83.347 77.088C84.9564 77.535 86.5658 78.0715 88.1752 78.608" stroke="#C1A78C" stroke-opacity="0.7" stroke-miterlimit="22.9256"/>
<path d="M119.023 128.589C120.632 129.125 122.242 129.661 123.851 130.109C125.46 130.556 127.07 131.092 128.59 131.539C130.11 131.986 131.63 132.523 132.971 132.97C132.434 131.629 131.987 130.109 131.54 128.589C131.093 127.069 130.646 125.459 130.11 123.85C129.663 122.24 129.126 120.631 128.59 119.021" stroke="#C1A78C" stroke-opacity="0.7" stroke-miterlimit="22.9256"/>
<path d="M75.0322 110.35C73.5122 109.635 71.9923 108.83 70.5617 108.026C69.0417 107.221 67.6111 106.416 66.2699 105.701C64.8393 104.986 63.4981 104.27 62.157 103.644C63.4981 103.018 64.8393 102.303 66.2699 101.588C67.7005 100.873 69.1311 100.068 70.5617 99.2632C72.0817 98.4585 73.5122 97.6538 75.0322 96.9385" stroke="#C1A78C" stroke-opacity="0.7" stroke-miterlimit="22.9256"/>
<path d="M132.166 110.35C133.686 109.635 135.206 108.83 136.636 108.026C138.156 107.221 139.587 106.416 140.928 105.701C142.359 104.986 143.7 104.27 145.041 103.644C143.7 103.018 142.359 102.303 140.928 101.588C139.498 100.873 138.067 100.068 136.636 99.2632C135.116 98.4585 133.686 97.6538 132.166 96.9385" stroke="#C1A78C" stroke-opacity="0.7" stroke-miterlimit="22.9256"/>
<path d="M88.1752 128.589C86.5658 129.125 84.9564 129.661 83.347 130.109C81.7376 130.556 80.1282 131.092 78.6082 131.539C77.0882 131.986 75.5682 132.523 74.227 132.97C74.7635 131.629 75.2106 130.109 75.6576 128.589C76.1047 127.069 76.5517 125.459 77.0882 123.85C77.5353 122.24 78.0717 120.631 78.6082 119.021" stroke="#C1A78C" stroke-opacity="0.7" stroke-miterlimit="22.9256"/>
<path d="M128.59 88.175C129.126 86.5656 129.663 84.9562 130.11 83.3468C130.557 81.7374 131.093 80.128 131.54 78.608C131.987 77.088 132.524 75.568 132.971 74.2268C131.63 74.7633 130.11 75.2103 128.59 75.6574C127.07 76.1045 125.46 76.5515 123.851 77.088C122.242 77.535 120.632 78.0715 119.023 78.608" stroke="#C1A78C" stroke-opacity="0.7" stroke-miterlimit="22.9256"/>
<path fill-rule="evenodd" clip-rule="evenodd" d="M103.644 115.446C110.171 115.446 115.536 110.081 115.536 103.554C115.536 97.0268 110.171 91.6621 103.644 91.6621C97.117 91.6621 91.7523 97.0268 91.7523 103.554C91.7523 110.17 97.117 115.446 103.644 115.446Z" stroke="#C1A78C" stroke-opacity="0.7" stroke-miterlimit="22.9256"/>
</svg>
