<svg width="331" height="484" viewBox="0 0 331 484" fill="none" xmlns="http://www.w3.org/2000/svg">
<path d="M159.721 111.778C184.902 87.8575 219.857 69.6071 278.677 50.1308C284.844 114.308 270.314 155.068 247.62 184.515C228.939 208.756 204.72 225.352 181.813 241.049C176.771 244.503 171.794 247.914 166.953 251.353C129.434 274.294 106.085 309.635 92.1187 339.213C85.133 354.007 80.49 367.369 77.593 377.033C76.1444 381.866 75.1321 385.775 74.4817 388.477C74.3594 388.986 74.2498 389.451 74.1526 389.872C74.0941 389.395 74.0302 388.86 73.9623 388.269C73.6306 385.382 73.2005 381.161 72.8081 375.829C72.0234 365.164 71.3895 350.056 71.9935 332.29C73.2017 296.752 79.3625 250.607 99.1533 208.112C118.985 165.53 134.453 135.781 159.721 111.778Z" stroke="#C1A78C" stroke-opacity="0.6"/>
<path d="M91.4609 419.747C91.5465 419.261 91.6493 418.689 91.7702 418.038C92.2105 415.668 92.8905 412.242 93.8488 408.022C95.7657 399.583 98.7954 387.974 103.246 375.296C112.155 349.919 126.728 320.35 149.389 303.293C152.532 300.927 155.455 298.72 158.184 296.66C175.259 283.768 184.723 276.623 192.755 272.323C202.023 267.363 209.37 266.201 224.443 264.416C232.061 263.534 238.568 260.903 245.072 257.628C247.584 256.363 250.083 255.009 252.643 253.622C256.744 251.401 261.003 249.094 265.729 246.928C280.921 239.963 300.692 234.587 333.911 239.221C327.678 296.875 298.234 328.863 267.664 346.846C238.272 364.135 207.828 368.486 195.896 370.191C195.373 370.266 194.886 370.335 194.436 370.401C191.157 370.877 187.432 371.123 183.294 371.396C180.685 371.569 177.912 371.752 174.983 372.01C167.441 372.676 158.951 373.839 149.837 376.61C131.953 382.047 111.713 393.658 91.4609 419.747Z" stroke="#C1A78C" stroke-opacity="0.6"/>
</svg>
