<svg width="30" height="30" viewBox="0 0 30 30" fill="none" xmlns="http://www.w3.org/2000/svg">
<path d="M14.656 0.870117C6.67775 0.870117 0.20266 7.2996 0.20266 15.2216C0.20266 23.1437 6.67775 29.5732 14.656 29.5732C22.6342 29.5732 29.1093 23.1437 29.1093 15.2216C29.1093 7.2996 22.6342 0.870117 14.656 0.870117ZM21.3623 10.6292C21.1455 12.8967 20.2061 18.4077 19.7291 20.9479C19.5268 22.0243 19.1221 22.3831 18.7463 22.4261C17.908 22.4979 17.272 21.8808 16.4626 21.3497C15.1908 20.5174 14.4681 20.0007 13.2396 19.197C11.8087 18.2642 12.7337 17.7475 13.5575 16.9151C13.7743 16.6999 17.4744 13.3559 17.5466 13.0546C17.5567 13.0089 17.5554 12.9615 17.5428 12.9165C17.5302 12.8715 17.5067 12.8302 17.4744 12.7962C17.3877 12.7245 17.272 12.7532 17.1709 12.7675C17.0408 12.7962 15.0173 14.1309 11.0716 16.7716C10.4934 17.1591 9.97311 17.36 9.5106 17.3457C8.99028 17.3313 8.00745 17.0586 7.27033 16.8147C6.35978 16.5276 5.65156 16.3698 5.70938 15.8675C5.73828 15.6091 6.09962 15.3508 6.77892 15.0781C10.9993 13.2555 13.8032 12.05 15.2052 11.4759C19.2232 9.81112 20.0471 9.52409 20.5963 9.52409C20.7119 9.52409 20.9865 9.55279 21.16 9.69631C21.3045 9.81112 21.3479 9.96899 21.3623 10.0838C21.3479 10.1699 21.3768 10.4282 21.3623 10.6292Z" fill="#456B59"/>
</svg>
