<svg width="30" height="30" viewBox="0 0 30 30" fill="none" xmlns="http://www.w3.org/2000/svg">
<path d="M15.1667 0.892578C12.2858 0.892578 9.46971 1.74083 7.07439 3.33006C4.67906 4.91929 2.81214 7.17812 1.70969 9.82092C0.607248 12.4637 0.318798 15.3718 0.88082 18.1773C1.44284 20.9829 2.83009 23.56 4.86715 25.5827C6.9042 27.6054 9.49957 28.9829 12.325 29.541C15.1505 30.099 18.0792 29.8126 20.7407 28.7179C23.4023 27.6232 25.6771 25.7695 27.2776 23.391C28.8781 21.0126 29.7324 18.2163 29.7324 15.3557C29.7285 11.521 28.1927 7.8445 25.4619 5.13296C22.7312 2.42143 19.0286 0.896407 15.1667 0.892578ZM23.8173 12.048V12.9823C23.8173 13.0538 23.8029 13.1246 23.7749 13.1905C23.7469 13.2564 23.7059 13.316 23.6543 13.3659C23.6027 13.4158 23.5416 13.4549 23.4745 13.4809C23.4074 13.507 23.3357 13.5194 23.2638 13.5175C21.7259 13.4092 20.2547 12.8517 19.0353 11.9149V18.7531C19.0352 19.51 18.8831 20.2592 18.588 20.957C18.2928 21.6548 17.8606 22.2872 17.3166 22.8173C16.7676 23.3605 16.1153 23.79 15.3976 24.0805C14.68 24.371 13.9112 24.5168 13.1362 24.5094C11.5776 24.5067 10.0817 23.8995 8.9675 22.8173C8.25872 22.1077 7.74819 21.2271 7.48616 20.2622C7.22412 19.2973 7.21961 18.2812 7.47305 17.314C7.70465 16.3855 8.17221 15.5322 8.83204 14.8365C9.32411 14.2393 9.94438 13.7588 10.6475 13.4303C11.3506 13.1017 12.1188 12.9333 12.8959 12.9375H14.0903V15.4006C14.0908 15.4721 14.076 15.5429 14.0467 15.6083C14.0175 15.6737 13.9746 15.7322 13.9209 15.7798C13.8671 15.8274 13.8038 15.8631 13.735 15.8845C13.6663 15.9059 13.5937 15.9125 13.5222 15.9039C12.8287 15.697 12.0814 15.7656 11.4379 16.0952C10.7944 16.4248 10.3048 16.9896 10.0725 17.6706C9.8402 18.3516 9.88323 19.0956 10.1925 19.7457C10.5019 20.3957 11.0533 20.9012 11.7306 21.1554C12.1239 21.3796 12.5638 21.5112 13.0153 21.5416C13.3649 21.5561 13.7145 21.5127 14.0466 21.4085C14.6012 21.2232 15.0837 20.8704 15.4266 20.3995C15.7695 19.9286 15.9556 19.3631 15.959 18.782V6.32204C15.9589 6.25374 15.9722 6.18606 15.9984 6.1229C16.0246 6.05974 16.0631 6.00233 16.1117 5.95396C16.1603 5.90559 16.218 5.86721 16.2815 5.84103C16.345 5.81485 16.4132 5.80137 16.482 5.80137H18.543C18.677 5.80118 18.806 5.8521 18.9033 5.94361C19.0006 6.03511 19.0588 6.16023 19.0659 6.29312C19.1413 6.93121 19.3455 7.54764 19.6664 8.10555C19.9872 8.66345 20.4181 9.15136 20.9332 9.54009C21.6296 10.0592 22.4567 10.3774 23.3235 10.4599C23.4533 10.471 23.5747 10.5283 23.6652 10.6214C23.7557 10.7145 23.8092 10.8369 23.8158 10.9662L23.8173 12.048Z" fill="#456B59"/>
</svg>
