<svg width="223" height="305" viewBox="0 0 223 305" fill="none" xmlns="http://www.w3.org/2000/svg">
<path d="M100.708 70.5239C116.504 55.5186 138.43 44.0521 175.328 31.8179C179.151 72.0592 170.017 97.6155 155.787 116.081C144.042 131.321 128.82 141.752 114.396 151.637C111.221 153.812 108.085 155.962 105.032 158.13C81.3668 172.602 66.6449 194.89 57.8422 213.533C53.4384 222.859 50.5114 231.282 48.685 237.375C47.7962 240.34 47.1678 242.754 46.7566 244.453C46.5484 242.638 46.2794 239.993 46.0339 236.656C45.5401 229.946 45.1412 220.439 45.5213 209.259C46.2817 186.892 50.159 157.861 62.6073 131.132C75.0963 104.316 84.8243 85.6123 100.708 70.5239Z" stroke="#C1A78C"/>
<path d="M57.9096 263.623C57.9295 263.514 57.9504 263.401 57.9722 263.284C58.249 261.793 58.6767 259.638 59.2796 256.983C60.4856 251.674 62.3917 244.37 65.1915 236.395C70.7989 220.423 79.9606 201.847 94.1855 191.14C96.1648 189.65 98.0054 188.26 99.7233 186.963C110.48 178.842 116.426 174.353 121.47 171.653C127.273 168.547 131.868 167.817 141.36 166.694C146.188 166.135 150.307 164.467 154.412 162.4C156.004 161.598 157.582 160.744 159.195 159.87C161.772 158.474 164.441 157.028 167.414 155.665C176.922 151.307 189.293 147.933 210.069 150.802C206.109 186.931 187.636 206.978 168.461 218.258C149.985 229.127 130.844 231.863 123.333 232.936C123.004 232.983 122.698 233.027 122.415 233.068C120.356 233.367 118.023 233.521 115.425 233.693C113.781 233.801 112.03 233.917 110.175 234.08C105.419 234.5 100.059 235.234 94.3022 236.984C83.138 240.378 70.5318 247.579 57.9096 263.623Z" stroke="#C1A78C"/>
</svg>
