<svg width="31" height="30" viewBox="0 0 31 30" fill="none" xmlns="http://www.w3.org/2000/svg">
<g clip-path="url(#clip0_0_5802)">
<path d="M17.8866 14.7438L14.5382 13.1814C14.246 13.0457 14.0059 13.1978 14.0059 13.5213V16.4642C14.0059 16.7878 14.246 16.9398 14.5382 16.8042L17.8851 15.2418C18.1788 15.1046 18.1788 14.881 17.8866 14.7438ZM15.4968 0.680664C7.59231 0.680664 1.18465 7.08832 1.18465 14.9928C1.18465 22.8972 7.59231 29.3049 15.4968 29.3049C23.4012 29.3049 29.8089 22.8972 29.8089 14.9928C29.8089 7.08832 23.4012 0.680664 15.4968 0.680664ZM15.4968 20.8071C8.17076 20.8071 8.04254 20.1466 8.04254 14.9928C8.04254 9.83893 8.17076 9.17848 15.4968 9.17848C22.8228 9.17848 22.951 9.83893 22.951 14.9928C22.951 20.1466 22.8228 20.8071 15.4968 20.8071Z" fill="#456B59"/>
</g>
<defs>
<clipPath id="clip0_0_5802">
<rect width="29.8169" height="29.8169" fill="white" transform="translate(0.588318 0.0844727)"/>
</clipPath>
</defs>
</svg>
